<svg width="1000" height="1000" viewBox="0 0 1000 1000" fill="none" xmlns="http://www.w3.org/2000/svg">
<path d="M464 275H504V423H464V275Z" fill="#00FFC5"/>
<path d="M407 480H259V520H407V480Z" fill="#00FFC5"/>
<path d="M464 577V725H504V577H464Z" fill="#00FFC5"/>
<path d="M561 520H709V480H561V520Z" fill="#00FFC5"/>
<path fill-rule="evenodd" clip-rule="evenodd" d="M650.661 423.657C624.679 380.315 577.244 351.305 523.034 351.305C440.912 351.305 374.339 417.878 374.339 500C374.339 582.122 440.912 648.695 523.034 648.695C577.244 648.695 624.679 619.685 650.661 576.343C621.524 640.995 556.518 686 481 686C378.275 686 295 602.725 295 500C295 397.275 378.275 314 481 314C556.518 314 621.524 359.005 650.661 423.657Z" fill="black"/>
</svg>
